# xmcd
#
# Track frame offsets: 
#        150
#        18594
#        30107
#        43001
#        52493
#        82690
#        92054
#        107666
#        129911
#        148569
#        165728
#        180039
#        196287
#        214614
#
# Disc length: 3027 seconds
#
# Revision: 0
# Processed by: cddbd v1.5.2PL0 Copyright (c) Steve Scherf et al.
# Submitted via: ExactAudioCopy v0.95b1
#
DISCID=ab0bd10e
DTITLE=Country Blend - You're The Reason
DYEAR=2008
DGENRE=Country
TTITLE0=You're The Reason
TTITLE1=I Walk The Kine
TTITLE2=Apartment #9
TTITLE3=Do You Know You Are My Sunshine
TTITLE4=Poppy
TTITLE5=Guitar Boogie Shuffle
TTITLE6=Once A Day
TTITLE7=Me And Bobbie McGee
TTITLE8=I'll Accept The Rose
TTITLE9=L.A. International Airport
TTITLE10=Tennessee Flat Top Box
TTITLE11=Don't Be Angry
TTITLE12=Wildwood Flower
TTITLE13=Little Mountain Church House
EXTD=
EXTT0=
EXTT1=
EXTT2=
EXTT3=
EXTT4=
EXTT5=
EXTT6=
EXTT7=
EXTT8=
EXTT9=
EXTT10=
EXTT11=
EXTT12=
EXTT13=
PLAYORDER=
